<svg width="208" height="32" viewBox="0 0 208 32" fill="none" xmlns="http://www.w3.org/2000/svg">
<g filter="url(#filter0_d_2564_4749)">
<path fill-rule="evenodd" clip-rule="evenodd" d="M45.0526 0.0243561C39.3739 0.491288 34.9857 4.4568 34.0388 9.97728C33.5833 12.6334 34.081 15.5634 35.3845 17.8998C37.949 22.4964 43.2116 24.8227 48.5718 23.7292C48.8443 23.6736 49.4308 23.5094 49.8752 23.3644C53.7598 22.0963 56.6907 18.9251 57.6788 14.9213C58.6872 10.8347 57.4944 6.46055 54.5755 3.54128C52.6524 1.61795 50.23 0.440693 47.4761 0.0912483C47.0299 0.034621 45.4562 -0.0088224 45.0526 0.0243561ZM96.705 0.0473184C95.7641 0.144762 94.8426 0.414131 94.0219 0.831587C92.3443 1.68494 91.2193 3.21052 90.8712 5.10383C90.7588 5.71515 90.7579 6.952 90.8695 7.56532C91.1084 8.8786 91.5947 9.78838 92.5343 10.6798C93.5411 11.6349 94.6493 12.2055 97.1069 13.0342C98.5293 13.5139 99.0003 13.697 99.6822 14.0352C101.022 14.6998 101.81 15.5218 102.041 16.4977C102.139 16.9072 102.136 17.8083 102.036 18.2519C101.736 19.592 100.631 20.677 99.2051 21.0341C98.0323 21.3277 96.7694 21.2037 95.7234 20.6921C94.4679 20.0781 93.6872 18.9067 93.5653 17.4538L93.533 17.0696H91.9414H90.3499L90.3815 17.5836C90.4877 19.3079 91.1407 20.8109 92.2726 21.9363C93.6499 23.3056 95.5061 23.9875 97.8556 23.9874C100.167 23.9873 102.081 23.2783 103.463 21.9101C104.696 20.6891 105.346 19.0469 105.346 17.152C105.346 14.4708 104.163 12.7398 101.383 11.3543C100.654 10.991 99.9933 10.7258 98.8348 10.3311C96.6313 9.58021 95.6188 9.06268 94.8427 8.29067C94.2008 7.65206 93.9709 7.09333 93.9709 6.17221C93.9709 5.55213 94.0596 5.18712 94.3411 4.64955C94.6994 3.96511 95.4224 3.32217 96.1319 3.05693C96.8194 2.79992 97.7214 2.75438 98.492 2.93774C98.9272 3.04132 99.6295 3.39149 99.9912 3.68523C100.7 4.26085 101.214 5.24039 101.313 6.2048L101.345 6.51275H102.96H104.576L104.541 6.1114C104.36 4.01283 103.367 2.24688 101.765 1.17257C100.404 0.260011 98.5758 -0.14645 96.705 0.0473184ZM4 11.9861V23.5885H5.62007H7.24015L7.21322 12.0709C7.19843 5.73617 7.19701 0.586105 7.21009 0.62624C7.22316 0.666375 8.5177 5.84383 10.0869 12.1317L12.9399 23.5642H16.1419H19.3439L22.1968 12.1317C23.7658 5.84383 25.0604 0.666375 25.0735 0.62624C25.0867 0.586105 25.0851 5.73622 25.0701 12.0709L25.0428 23.5885H26.6634H28.284V11.9861V0.383725H25.1283H21.9726L21.929 0.541494C21.9051 0.628234 20.5995 5.82739 19.0278 12.0952C17.4562 18.363 16.1574 23.4912 16.1418 23.4912C16.1262 23.4912 14.8275 18.363 13.2557 12.0952C11.684 5.82744 10.3786 0.628234 10.3547 0.541494L10.3114 0.383725H7.15569H4V11.9861ZM63.6161 0.415834C63.5983 0.433444 63.5838 5.65449 63.5838 12.0182V23.5885H65.2155H66.8471L66.8284 12.0466L66.8098 0.504618L66.9363 0.772186C67.0059 0.919349 69.3495 6.10775 72.1443 12.302L77.2259 23.5642L80.564 23.5767L83.9021 23.5892V11.9861V0.382996H82.3109H80.7197L80.7125 3.53301C80.7086 5.26549 80.692 10.4738 80.6758 15.1069L80.6463 23.5308L75.4367 12.0177C72.5714 5.68553 70.2059 0.477423 70.18 0.444147C70.1434 0.397006 69.4174 0.383677 66.8907 0.383725C65.1074 0.383725 63.6338 0.398174 63.6161 0.415834ZM108.725 1.79367V3.20463H112.543H116.362V13.3966V23.5885H117.953H119.545V13.3966V3.20463H123.438H127.331L127.318 1.80597L127.305 0.40732L118.015 0.395012L108.725 0.382752V1.79367ZM132.702 0.41199C132.682 0.431742 132.666 5.65449 132.666 12.0182V23.5885H134.257H135.848L135.86 18.6257L135.873 13.6629L140.401 18.6238L144.93 23.5848L147.006 23.5867L149.082 23.5885L148.816 23.3088C148.095 22.5497 139.739 13.5486 139.726 13.5178C139.718 13.4982 140.049 13.4669 140.461 13.4481C140.872 13.4294 141.423 13.3717 141.684 13.3198C144.029 12.8543 145.883 11.269 146.611 9.10763C146.872 8.33402 146.936 7.90119 146.937 6.90194C146.937 6.13446 146.921 5.92731 146.823 5.49507C146.525 4.17031 145.971 3.18055 145.024 2.27884C144.065 1.36697 142.901 0.800305 141.41 0.519747C140.892 0.422158 140.679 0.416515 136.802 0.396812C134.567 0.385428 132.722 0.392287 132.702 0.41199ZM153.152 0.446482C153.139 0.482142 153.135 3.76073 153.144 7.73233C153.162 15.5594 153.151 15.2075 153.43 16.5501C154.126 19.8926 156.241 22.3628 159.302 23.4096C161.605 24.1968 164.583 24.1968 166.886 23.4096C169.947 22.3628 172.061 19.8934 172.758 16.5501C173.043 15.185 173.033 15.4923 173.033 7.63168V0.40732H171.417H169.802L169.774 7.77762C169.747 15.0698 169.746 15.1537 169.641 15.6913C169.499 16.4241 169.241 17.1977 168.948 17.7682C167.837 19.9375 165.731 21.1561 163.094 21.1561C160.826 21.1561 158.894 20.226 157.714 18.567C157.182 17.8179 156.757 16.7723 156.547 15.6913C156.443 15.1537 156.441 15.0698 156.414 7.77762L156.387 0.40732L154.782 0.394477C153.482 0.384114 153.173 0.393942 153.152 0.446482ZM179.716 11.9857V23.5885H181.333H182.95L182.926 12.0952C182.912 5.77392 182.913 0.634753 182.927 0.674889C182.942 0.715024 184.236 5.88153 185.803 12.156L188.653 23.5642H191.854H195.055L197.909 12.1317C199.479 5.84383 200.774 0.666375 200.787 0.62624C200.801 0.586105 200.799 5.73622 200.783 12.0709L200.755 23.5885H202.377H204V11.9861V0.383725H200.844H197.689L197.645 0.541494C197.621 0.628234 196.314 5.82719 194.742 12.0947C193.169 18.3622 191.871 23.4904 191.858 23.4907C191.839 23.4911 189.57 14.4999 186.074 0.565429L186.028 0.382996H182.872H179.716V11.9857ZM47.5985 3.0564C50.8513 3.75723 53.5333 6.36476 54.3806 9.65012C54.6186 10.5729 54.6488 10.8416 54.6481 12.0344C54.6476 12.9961 54.6322 13.2285 54.5387 13.6885C54.2367 15.1738 53.6708 16.4505 52.7921 17.6293C52.3874 18.1721 51.3592 19.1717 50.8051 19.561C47.7097 21.7355 43.9335 21.6832 40.9153 19.4241C39.2384 18.169 38.0024 16.2965 37.4932 14.2402C37.28 13.3791 37.2272 12.9244 37.2285 11.9614C37.2307 10.4383 37.5269 9.20411 38.2192 7.83333C38.7263 6.82926 39.2613 6.11364 40.1163 5.2958C41.4129 4.05564 42.9817 3.2652 44.7099 2.98133C45.3287 2.8797 46.9772 2.92256 47.5985 3.0564ZM140.57 3.18128C142.687 3.54804 144.06 5.37899 143.782 7.46398C143.563 9.10705 142.488 10.2851 140.797 10.7336C140.334 10.8564 140.302 10.8581 138.088 10.8794L135.848 10.9009V7.00411V3.10733H137.996C139.698 3.10733 140.232 3.1227 140.57 3.18128Z" fill="#1D1D1D"/>
</g>
<defs>
<filter id="filter0_d_2564_4749" x="0" y="0" width="208" height="32" filterUnits="userSpaceOnUse" color-interpolation-filters="sRGB">
<feFlood flood-opacity="0" result="BackgroundImageFix"/>
<feColorMatrix in="SourceAlpha" type="matrix" values="0 0 0 0 0 0 0 0 0 0 0 0 0 0 0 0 0 0 127 0" result="hardAlpha"/>
<feOffset dy="4"/>
<feGaussianBlur stdDeviation="2"/>
<feComposite in2="hardAlpha" operator="out"/>
<feColorMatrix type="matrix" values="0 0 0 0 0 0 0 0 0 0 0 0 0 0 0 0 0 0 0.25 0"/>
<feBlend mode="normal" in2="BackgroundImageFix" result="effect1_dropShadow_2564_4749"/>
<feBlend mode="normal" in="SourceGraphic" in2="effect1_dropShadow_2564_4749" result="shape"/>
</filter>
</defs>
</svg>
