<svg width="200" height="24" viewBox="0 0 200 24" fill="none" xmlns="http://www.w3.org/2000/svg">
<path fill-rule="evenodd" clip-rule="evenodd" d="M41.0526 0.0243561C35.3739 0.491288 30.9857 4.4568 30.0388 9.97728C29.5833 12.6334 30.081 15.5634 31.3845 17.8998C33.949 22.4964 39.2116 24.8227 44.5718 23.7292C44.8443 23.6736 45.4308 23.5094 45.8752 23.3644C49.7598 22.0963 52.6907 18.9251 53.6788 14.9213C54.6872 10.8347 53.4944 6.46055 50.5755 3.54128C48.6524 1.61795 46.23 0.440693 43.4761 0.0912483C43.0299 0.034621 41.4562 -0.0088224 41.0526 0.0243561ZM92.705 0.0473184C91.7641 0.144762 90.8426 0.414131 90.0219 0.831587C88.3443 1.68494 87.2193 3.21052 86.8712 5.10383C86.7588 5.71515 86.7579 6.952 86.8695 7.56532C87.1084 8.8786 87.5947 9.78838 88.5343 10.6798C89.5411 11.6349 90.6493 12.2055 93.1069 13.0342C94.5293 13.5139 95.0003 13.697 95.6822 14.0352C97.0224 14.6998 97.8098 15.5218 98.0414 16.4977C98.1386 16.9072 98.136 17.8083 98.0364 18.2519C97.7356 19.592 96.6314 20.677 95.2051 21.0341C94.0323 21.3277 92.7694 21.2037 91.7234 20.6921C90.4679 20.0781 89.6872 18.9067 89.5653 17.4538L89.533 17.0696H87.9414H86.3499L86.3815 17.5836C86.4877 19.3079 87.1407 20.8109 88.2726 21.9363C89.6499 23.3056 91.5061 23.9875 93.8556 23.9874C96.1673 23.9873 98.081 23.2783 99.4631 21.9101C100.696 20.6891 101.346 19.0469 101.346 17.152C101.346 14.4708 100.163 12.7398 97.3827 11.3543C96.6537 10.991 95.9933 10.7258 94.8348 10.3311C92.6313 9.58021 91.6188 9.06268 90.8427 8.29067C90.2008 7.65206 89.9709 7.09333 89.9709 6.17221C89.9709 5.55213 90.0596 5.18712 90.3411 4.64955C90.6994 3.96511 91.4224 3.32217 92.1319 3.05693C92.8194 2.79992 93.7214 2.75438 94.492 2.93774C94.9272 3.04132 95.6295 3.39149 95.9912 3.68523C96.7 4.26085 97.2141 5.24039 97.3135 6.2048L97.3452 6.51275H98.9604H100.576L100.541 6.1114C100.36 4.01283 99.3668 2.24688 97.7645 1.17257C96.4035 0.260011 94.5758 -0.14645 92.705 0.0473184ZM0 11.9861V23.5885H1.62007H3.24015L3.21322 12.0709C3.19843 5.73617 3.19701 0.586105 3.21009 0.62624C3.22316 0.666375 4.5177 5.84383 6.08685 12.1317L8.93993 23.5642H12.1419H15.3439L18.1968 12.1317C19.7658 5.84383 21.0604 0.666375 21.0735 0.62624C21.0867 0.586105 21.0851 5.73622 21.0701 12.0709L21.0428 23.5885H22.6634H24.284V11.9861V0.383725H21.1283H17.9726L17.929 0.541494C17.9051 0.628234 16.5995 5.82739 15.0278 12.0952C13.4562 18.363 12.1574 23.4912 12.1418 23.4912C12.1262 23.4912 10.8275 18.363 9.25572 12.0952C7.68401 5.82744 6.37856 0.628234 6.35471 0.541494L6.31138 0.383725H3.15569H0V11.9861ZM59.6161 0.415834C59.5983 0.433444 59.5838 5.65449 59.5838 12.0182V23.5885H61.2155H62.8471L62.8284 12.0466L62.8098 0.504618L62.9363 0.772186C63.0059 0.919349 65.3495 6.10775 68.1443 12.302L73.2259 23.5642L76.564 23.5767L79.9021 23.5892V11.9861V0.382996H78.3109H76.7197L76.7125 3.53301C76.7086 5.26549 76.692 10.4738 76.6758 15.1069L76.6463 23.5308L71.4367 12.0177C68.5714 5.68553 66.2059 0.477423 66.18 0.444147C66.1434 0.397006 65.4174 0.383677 62.8907 0.383725C61.1074 0.383725 59.6338 0.398174 59.6161 0.415834ZM104.725 1.79367V3.20463H108.543H112.362V13.3966V23.5885H113.953H115.545V13.3966V3.20463H119.438H123.331L123.318 1.80597L123.305 0.40732L114.015 0.395012L104.725 0.382752V1.79367ZM128.702 0.41199C128.682 0.431742 128.666 5.65449 128.666 12.0182V23.5885H130.257H131.848L131.86 18.6257L131.873 13.6629L136.401 18.6238L140.93 23.5848L143.006 23.5867L145.082 23.5885L144.816 23.3088C144.095 22.5497 135.739 13.5486 135.726 13.5178C135.718 13.4982 136.049 13.4669 136.461 13.4481C136.872 13.4294 137.423 13.3717 137.684 13.3198C140.029 12.8543 141.883 11.269 142.611 9.10763C142.872 8.33402 142.936 7.90119 142.937 6.90194C142.937 6.13446 142.921 5.92731 142.823 5.49507C142.525 4.17031 141.971 3.18055 141.024 2.27884C140.065 1.36697 138.901 0.800305 137.41 0.519747C136.892 0.422158 136.679 0.416515 132.802 0.396812C130.567 0.385428 128.722 0.392287 128.702 0.41199ZM149.152 0.446482C149.139 0.482142 149.135 3.76073 149.144 7.73233C149.162 15.5594 149.151 15.2075 149.43 16.5501C150.126 19.8926 152.241 22.3628 155.302 23.4096C157.605 24.1968 160.583 24.1968 162.886 23.4096C165.947 22.3628 168.061 19.8934 168.758 16.5501C169.043 15.185 169.033 15.4923 169.033 7.63168V0.40732H167.417H165.802L165.774 7.77762C165.747 15.0698 165.746 15.1537 165.641 15.6913C165.499 16.4241 165.241 17.1977 164.948 17.7682C163.837 19.9375 161.731 21.1561 159.094 21.1561C156.826 21.1561 154.894 20.226 153.714 18.567C153.182 17.8179 152.757 16.7723 152.547 15.6913C152.443 15.1537 152.441 15.0698 152.414 7.77762L152.387 0.40732L150.782 0.394477C149.482 0.384114 149.173 0.393942 149.152 0.446482ZM175.716 11.9857V23.5885H177.333H178.95L178.926 12.0952C178.912 5.77392 178.913 0.634753 178.927 0.674889C178.942 0.715024 180.236 5.88153 181.803 12.156L184.653 23.5642H187.854H191.055L193.909 12.1317C195.479 5.84383 196.774 0.666375 196.787 0.62624C196.801 0.586105 196.799 5.73622 196.783 12.0709L196.755 23.5885H198.377H200V11.9861V0.383725H196.844H193.689L193.645 0.541494C193.621 0.628234 192.314 5.82719 190.742 12.0947C189.169 18.3622 187.871 23.4904 187.858 23.4907C187.839 23.4911 185.57 14.4999 182.074 0.565429L182.028 0.382996H178.872H175.716V11.9857ZM43.5985 3.0564C46.8513 3.75723 49.5333 6.36476 50.3806 9.65012C50.6186 10.5729 50.6488 10.8416 50.6481 12.0344C50.6476 12.9961 50.6322 13.2285 50.5387 13.6885C50.2367 15.1738 49.6708 16.4505 48.7921 17.6293C48.3874 18.1721 47.3592 19.1717 46.8051 19.561C43.7097 21.7355 39.9335 21.6832 36.9153 19.4241C35.2384 18.169 34.0024 16.2965 33.4932 14.2402C33.28 13.3791 33.2272 12.9244 33.2285 11.9614C33.2307 10.4383 33.5269 9.20411 34.2192 7.83333C34.7263 6.82926 35.2613 6.11364 36.1163 5.2958C37.4129 4.05564 38.9817 3.2652 40.7099 2.98133C41.3287 2.8797 42.9772 2.92256 43.5985 3.0564ZM136.57 3.18128C138.687 3.54804 140.06 5.37899 139.782 7.46398C139.563 9.10705 138.488 10.2851 136.797 10.7336C136.334 10.8564 136.302 10.8581 134.088 10.8794L131.848 10.9009V7.00411V3.10733H133.996C135.698 3.10733 136.232 3.1227 136.57 3.18128Z" fill="white"/>
</svg>
